<svg width="14" height="16" viewBox="0 0 14 16" fill="none" xmlns="http://www.w3.org/2000/svg">
<path d="M6.99997 0C6.44685 0 5.99997 0.446875 5.99997 1V1.6C3.71872 2.0625 1.99997 4.08125 1.99997 6.5V7.29375C1.99997 8.7125 1.5156 10.0906 0.631223 11.1969L0.165598 11.7812C-0.0156524 12.0062 -0.0500274 12.3156 0.0749726 12.575C0.199973 12.8344 0.462473 13 0.749973 13H13.25C13.5375 13 13.8 12.8344 13.925 12.575C14.05 12.3156 14.0156 12.0062 13.8343 11.7812L13.3687 11.2C12.4843 10.0906 12 8.7125 12 7.29375V6.5C12 4.08125 10.2812 2.0625 7.99997 1.6V1C7.99997 0.446875 7.5531 0 6.99997 0ZM6.99997 3C8.93435 3 10.5 4.56562 10.5 6.5V7.29375C10.5 8.79062 10.9343 10.25 11.7406 11.5H2.25935C3.0656 10.25 3.49997 8.79062 3.49997 7.29375V6.5C3.49997 4.56562 5.0656 3 6.99997 3ZM8.99997 14H6.99997H4.99997C4.99997 14.5312 5.20935 15.0406 5.58435 15.4156C5.95935 15.7906 6.46872 16 6.99997 16C7.53122 16 8.0406 15.7906 8.4156 15.4156C8.7906 15.0406 8.99997 14.5312 8.99997 14Z" fill="#E5E7EB"/>
</svg>
