<svg width="12" height="14" viewBox="0 0 12 14" fill="none" xmlns="http://www.w3.org/2000/svg">
<path d="M10.0887 0.00244128C9.53066 -0.0385587 9.19865 0.444441 8.97465 0.881441L5.90263 6.09644C5.28963 5.73144 4.69866 5.32644 4.07066 4.98744C3.54466 4.66744 2.73062 4.99944 2.69462 5.63344L2.68064 6.39644L8.70066 9.91844C9.06066 9.77944 9.51766 9.72644 9.65666 9.29244C9.90666 8.72244 9.43362 8.20244 8.94462 7.97444L7.60563 7.14644C8.72463 5.24444 9.84862 3.34544 10.9626 1.44044C11.2906 0.810441 10.7987 0.00044128 10.0887 0.00244128ZM2.01463 7.16044C0.586627 7.71044 -0.289375 9.36344 0.0876245 10.8524C0.409625 12.3744 1.86364 13.3564 3.30564 13.6734C5.13164 14.0914 7.13364 13.9234 8.99064 13.9574H9.75065C8.76365 13.8034 7.63062 13.4054 7.22062 12.4104C6.93762 11.7304 7.37266 10.8804 8.08866 10.7134L2.01463 7.16044Z" fill="#E5E7EB"/>
</svg>
