<svg width="4" height="14" viewBox="0 0 4 14" fill="none" xmlns="http://www.w3.org/2000/svg">
<path d="M1.75 10C1.28587 10 0.840752 10.1844 0.512563 10.5126C0.184374 10.8408 0 11.2859 0 11.75C0 12.2141 0.184374 12.6592 0.512563 12.9874C0.840752 13.3156 1.28587 13.5 1.75 13.5C2.21413 13.5 2.65925 13.3156 2.98744 12.9874C3.31563 12.6592 3.5 12.2141 3.5 11.75C3.5 11.2859 3.31563 10.8408 2.98744 10.5126C2.65925 10.1844 2.21413 10 1.75 10ZM1.75 5C1.28587 5 0.840752 5.18437 0.512563 5.51256C0.184374 5.84075 0 6.28587 0 6.75C0 7.21413 0.184374 7.65925 0.512563 7.98744C0.840752 8.31563 1.28587 8.5 1.75 8.5C2.21413 8.5 2.65925 8.31563 2.98744 7.98744C3.31563 7.65925 3.5 7.21413 3.5 6.75C3.5 6.28587 3.31563 5.84075 2.98744 5.51256C2.65925 5.18437 2.21413 5 1.75 5ZM3.5 1.75C3.5 1.28587 3.31563 0.840752 2.98744 0.512563C2.65925 0.184374 2.21413 0 1.75 0C1.28587 0 0.840752 0.184374 0.512563 0.512563C0.184374 0.840752 0 1.28587 0 1.75C0 2.21413 0.184374 2.65925 0.512563 2.98744C0.840752 3.31563 1.28587 3.5 1.75 3.5C2.21413 3.5 2.65925 3.31563 2.98744 2.98744C3.31563 2.65925 3.5 2.21413 3.5 1.75Z" fill="#E5E7EB"/>
</svg>
